<svg width="127" height="90" viewBox="0 0 127 90" fill="none" xmlns="http://www.w3.org/2000/svg">
<path opacity="0.98" fill-rule="evenodd" clip-rule="evenodd" d="M9.80248 0.0180233C33.2517 -0.0300376 56.7007 0.0180233 80.1496 0.162177C85.291 1.45956 88.5106 4.6791 89.808 9.8205C89.9521 12.7018 90 15.5849 89.9521 18.4697C95.0465 18.4216 100.14 18.4697 105.232 18.6139C109.488 19.7077 112.516 22.2544 114.314 26.2541C115.323 30.0998 116.333 33.9438 117.341 37.7864C119.118 38.7228 120.848 39.7319 122.531 40.8136C124.644 42.7363 126.038 45.091 126.711 47.8772C126.904 55.4692 126.904 63.0615 126.711 70.6535C125.591 75.6776 122.563 78.9452 117.63 80.456C114.406 88.603 108.543 91.5342 100.043 89.2494C96.3537 87.5486 93.8549 84.7616 92.5469 80.8884C76.2093 80.6961 59.8721 80.6961 43.5345 80.8884C40.0298 88.9152 34.0717 91.606 25.6594 88.9611C22.3165 87.156 20.01 84.4652 18.74 80.8884C15.7609 80.7924 12.7817 80.6961 9.80248 80.6001C4.65843 79.3001 1.43901 76.0809 0.144161 70.9418C-0.0480537 50.5679 -0.0480537 30.1944 0.144161 9.8205C1.49148 4.67737 4.7109 1.40969 9.80248 0.0180233ZM12.6856 6.93742C34.2127 6.88927 55.7397 6.93742 77.2665 7.08157C80.6781 7.41803 82.5521 9.29203 82.8886 12.7036C83.0327 33.0772 83.0809 53.451 83.0327 73.8249C69.8663 73.873 56.7001 73.8249 43.5345 73.6807C40.5773 66.3078 35.1955 63.4247 27.3893 65.0315C23.1681 66.5615 20.2851 69.4446 18.74 73.6807C16.7219 73.873 14.7037 73.873 12.6856 73.6807C9.27392 73.3443 7.39992 71.4703 7.06355 68.0587C6.87134 49.607 6.87134 31.1553 7.06355 12.7036C7.45127 9.28915 9.32527 7.367 12.6856 6.93742ZM89.9521 25.3891C94.6734 25.2721 99.3827 25.4162 104.079 25.8216C105.857 26.4464 107.058 27.6474 107.683 29.4254C108.702 33.791 109.855 38.1156 111.143 42.3993C111.479 42.7358 111.815 43.0719 112.152 43.4084C114.023 44.2958 115.849 45.257 117.63 46.2915C118.504 47.0292 119.128 47.9423 119.504 49.0304C119.821 52.4786 119.965 55.9383 119.936 59.4095C119.965 62.8807 119.821 66.3404 119.504 69.7886C118.94 70.9758 118.123 71.937 117.053 72.6717C113.801 65.9523 108.515 63.4057 101.196 65.0315C96.975 66.5615 94.0919 69.4446 92.5469 73.6807C91.6871 73.8243 90.8222 73.8725 89.9521 73.8249C89.9521 57.6796 89.9521 41.5344 89.9521 25.3891ZM29.4074 71.8067C34.6396 71.4169 36.9942 73.8194 36.471 79.0144C34.7149 82.6543 31.976 83.6634 28.2542 82.0417C25.4322 79.7857 24.9035 77.0467 26.6685 73.8249C27.4729 72.97 28.3859 72.2974 29.4074 71.8067ZM103.214 71.8067C108.446 71.4169 110.801 73.8194 110.278 79.0144C108.522 82.6543 105.783 83.6634 102.061 82.0417C99.2391 79.7857 98.7103 77.0467 100.475 73.8249C101.28 72.97 102.193 72.2974 103.214 71.8067Z" fill="#7E7E7E"/>
<path opacity="0.988" fill-rule="evenodd" clip-rule="evenodd" d="M38.9215 18.4696C49.1088 18.4215 59.2956 18.4696 69.4821 18.6138C71.3763 19.6675 72.0011 21.2532 71.3561 23.3708C70.9237 24.1876 70.2989 24.8124 69.4821 25.2448C59.2953 25.4371 49.1082 25.4371 38.9215 25.2448C36.8892 23.9512 36.3604 22.1732 37.3358 19.9111C37.8345 19.3628 38.363 18.8822 38.9215 18.4696Z" fill="#7E7E7E"/>
<path opacity="0.992" fill-rule="evenodd" clip-rule="evenodd" d="M20.47 36.9216C36.8078 36.8735 53.1451 36.9216 69.4824 37.0658C71.5146 38.3594 72.0434 40.1374 71.068 42.3995C70.6232 42.9409 70.0947 43.3734 69.4824 43.6969C53.1448 43.8892 36.8075 43.8892 20.47 43.6969C18.4376 42.4032 17.909 40.6252 18.8843 38.3632C19.3831 37.8148 19.9115 37.3342 20.47 36.9216Z" fill="#7E7E7E"/>
</svg>
