<svg width="90" height="90" viewBox="0 0 90 90" fill="none" xmlns="http://www.w3.org/2000/svg">
<path d="M41.5908 0.0556335C38.5852 0.393776 37.2702 0.60041 35.3916 1.01369C18.4848 4.71441 5.31626 17.5448 1.20226 34.3577C0.225424 38.3214 0 40.4066 0 45.0278C0 49.649 0.225424 51.7342 1.20226 55.6979C5.22233 72.1163 17.8837 84.7777 34.3021 88.7977C38.2658 89.7746 40.351 90 44.9722 90C49.5934 90 51.6786 89.7746 55.6423 88.7977C73.7514 84.3644 87.1078 69.4112 89.7189 50.6634C90.0759 48.0147 90.0195 41.3271 89.6062 38.6784C88.1034 29.0415 84.0082 20.6256 77.3957 13.675C75.7614 11.9656 72.3988 9.16654 70.1258 7.64493C64.3775 3.81271 58.4789 1.5209 51.4156 0.41256C49.6685 0.130775 42.9997 -0.113434 41.5908 0.0556335ZM49.3304 6.23602C56.3749 7.06258 62.8746 9.63618 68.4351 13.8065C70.2197 15.1403 73.5635 18.3714 75.1227 20.2311C78.9925 24.8899 81.9606 31.0515 83.2004 37.0252C86.826 54.552 78.1847 72.229 62.1608 80.0813C47.0949 87.4452 29.0422 84.4207 17.2638 72.5296C2.10396 57.2571 2.1791 32.5168 17.414 17.3757C25.8487 8.97869 37.6459 4.86469 49.3304 6.23602Z" fill="#7E7E7E"/>
<path d="M43.7512 7.72019C42.981 8.05833 42.192 9.01638 42.0417 9.78658C41.9854 10.1435 41.9666 11.3646 42.0042 12.4917C42.0417 14.2387 42.1169 14.652 42.455 15.0841C43.1876 16.0797 43.7888 16.3802 44.9723 16.3802C46.1557 16.3802 46.7569 16.0797 47.4895 15.0841C47.8464 14.6144 47.884 14.2951 47.884 11.9657C47.884 9.1291 47.7901 8.82853 46.6254 7.9644C46.0054 7.49477 44.5026 7.36327 43.7512 7.72019Z" fill="#7E7E7E"/>
<path d="M19.2926 17.9768C18.0527 18.5403 17.3389 20.0056 17.6395 21.3957C17.8085 22.1471 20.5324 25.0213 21.4341 25.4158C22.843 26.0169 24.2895 25.5473 25.1912 24.1947C25.6608 23.4997 25.7547 22.4853 25.4166 21.6024C25.1536 20.8885 22.4861 18.1834 21.7347 17.8641C20.9081 17.5072 20.2318 17.5447 19.2926 17.9768Z" fill="#7E7E7E"/>
<path d="M68.172 17.8641C67.4394 18.2022 64.7719 20.9261 64.5277 21.6024C64.1895 22.4853 64.2835 23.4997 64.7531 24.1947C65.6548 25.5473 67.1013 26.0169 68.5102 25.4158C68.8483 25.2843 69.8064 24.4577 70.6517 23.5748C72.2485 21.9217 72.5678 21.2642 72.3236 20.0995C71.9103 18.221 69.8439 17.1127 68.172 17.8641Z" fill="#7E7E7E"/>
<path d="M43.7511 22.7484C43.0561 23.0677 42.4361 23.7252 42.1731 24.4203C42.0416 24.7772 41.9665 28.1585 41.9665 34.3765V43.788L38.3221 47.4699C34.396 51.4148 34.2457 51.6403 34.5463 53.237C34.7153 54.1575 35.8425 55.2846 36.763 55.4537C38.3973 55.773 38.5288 55.6603 43.2439 50.9828C46.4938 47.7329 47.6585 46.4555 47.8088 45.9671C47.9215 45.535 47.9778 41.5713 47.9403 34.8461C47.8839 24.6269 47.8839 24.3827 47.4894 23.8755C47.2828 23.5937 46.8883 23.1804 46.6253 22.9926C45.9866 22.5229 44.5025 22.3914 43.7511 22.7484Z" fill="#7E7E7E"/>
<path d="M9.18603 42.2852C7.36385 43.093 6.85665 45.4975 8.17162 47.0003C8.96061 47.8833 9.74959 48.0711 12.3232 47.996C14.6901 47.9396 15.0846 47.7893 15.93 46.6434C16.4748 45.9108 16.4748 44.145 15.93 43.4123C15.0659 42.2476 14.7089 42.1161 12.1353 42.0598C10.4259 42.041 9.58053 42.0974 9.18603 42.2852Z" fill="#7E7E7E"/>
<path d="M75.3105 42.2852C73.4884 43.093 72.9812 45.4975 74.2961 47.0003C75.0851 47.8833 75.8741 48.0711 78.4477 47.996C80.3075 47.9584 80.7207 47.8833 81.1528 47.5451C82.1484 46.8125 82.449 46.2114 82.449 45.0279C82.449 43.8444 82.1484 43.2433 81.1528 42.5106C80.7019 42.1725 80.3262 42.1161 78.2598 42.0598C76.5504 42.041 75.705 42.0974 75.3105 42.2852Z" fill="#7E7E7E"/>
<path d="M21.3964 64.6398C21.0959 64.7713 20.1378 65.5978 19.2925 66.4807C17.6581 68.1714 17.3764 68.7725 17.6394 70.1439C17.8084 71.0644 18.9355 72.1915 19.856 72.3605C21.2837 72.6423 21.8285 72.3605 23.6882 70.5196C25.0408 69.1482 25.4353 68.641 25.5292 68.0775C25.9988 65.5978 23.6507 63.6441 21.3964 64.6398Z" fill="#7E7E7E"/>
<path d="M66.1057 64.6398C65.3355 64.9779 64.5465 65.9359 64.3962 66.7249C64.152 68.115 64.415 68.6786 66.2559 70.5196C68.1157 72.3605 68.6605 72.6423 70.0882 72.3605C71.0086 72.1915 72.1358 71.0644 72.3048 70.1439C72.5678 68.7725 72.286 68.1714 70.6517 66.4807C68.6417 64.3955 67.6085 63.9823 66.1057 64.6398Z" fill="#7E7E7E"/>
<path d="M43.7512 73.8445C42.981 74.1827 42.192 75.1407 42.0417 75.9109C41.9854 76.2678 41.9666 77.4889 42.0042 78.616C42.0605 80.8703 42.2296 81.2835 43.3567 82.1101C44.0893 82.6549 45.8552 82.6549 46.5878 82.1101C47.7901 81.2272 47.884 80.9266 47.884 78.09C47.884 75.2534 47.7901 74.9529 46.6254 74.0887C46.0054 73.6191 44.5026 73.4876 43.7512 73.8445Z" fill="#7E7E7E"/>
</svg>
